<?xml version="1.0" standalone="no"?>
<!DOCTYPE svg PUBLIC "-//W3C//DTD SVG 20010904//EN"
 "http://www.w3.org/TR/2001/REC-SVG-20010904/DTD/svg10.dtd">
<svg version="1.0" xmlns="http://www.w3.org/2000/svg"
 width="120.000000pt" height="120.000000pt" viewBox="0 0 120.000000 120.000000"
 preserveAspectRatio="xMidYMid meet">
<metadata>
Created by potrace 1.11, written by Peter Selinger 2001-2013
</metadata>
<g transform="translate(0.000000,120.000000) scale(0.100000,-0.100000)"
fill="#000000" stroke="none">
<path d="M305 611 c0 -253 3 -463 7 -466 6 -6 454 -10 576 -6 21 1 22 5 22 86
l0 85 -212 2 -213 3 0 95 c-1 52 0 100 2 105 2 7 67 10 181 10 l177 -1 0 86 0
85 -180 0 -181 0 1 101 0 101 185 1 c102 0 194 1 205 1 17 1 20 7 18 38 -1 21
-2 59 -2 86 l-1 47 -293 0 -292 0 0 -459z"/>
</g>
</svg>
